<?xml version="1.0" encoding="UTF-8" standalone="no"?>
<svg
   width="67.73333mm"
   height="67.73333mm"
   viewBox="0 0 67.733329 67.73333"
   version="1.1"
   id="svg8"
   sodipodi:docname="com.github.jkotra.unlockr.svg"
   inkscape:version="1.2.1 (9c6d41e410, 2022-07-14)"
   xml:space="preserve"
   xmlns:inkscape="http://www.inkscape.org/namespaces/inkscape"
   xmlns:sodipodi="http://sodipodi.sourceforge.net/DTD/sodipodi-0.dtd"
   xmlns:xlink="http://www.w3.org/1999/xlink"
   xmlns="http://www.w3.org/2000/svg"
   xmlns:svg="http://www.w3.org/2000/svg"
   xmlns:rdf="http://www.w3.org/1999/02/22-rdf-syntax-ns#"
   xmlns:cc="http://creativecommons.org/ns#"
   xmlns:dc="http://purl.org/dc/elements/1.1/"><defs
     id="defs2"><linearGradient
       inkscape:collect="always"
       id="linearGradient1430"><stop
         style="stop-color:#36476c;stop-opacity:1;"
         offset="0"
         id="stop1426" /><stop
         style="stop-color:#36476c;stop-opacity:0;"
         offset="1"
         id="stop1428" /></linearGradient><linearGradient
       inkscape:collect="always"
       xlink:href="#linearGradient1430"
       id="linearGradient1432"
       x1="65.227478"
       y1="60.555935"
       x2="282.30002"
       y2="237.71365"
       gradientUnits="userSpaceOnUse"
       gradientTransform="matrix(0.62787749,0,0,0.77224361,24.967901,16.386512)" /></defs><sodipodi:namedview
     id="base"
     pagecolor="#ffffff"
     bordercolor="#666666"
     borderopacity="1.0"
     inkscape:pageopacity="0"
     inkscape:pageshadow="2"
     inkscape:zoom="1.1532263"
     inkscape:cx="399.31451"
     inkscape:cy="140.90903"
     inkscape:document-units="mm"
     inkscape:current-layer="layer1"
     inkscape:document-rotation="0"
     showgrid="false"
     inkscape:window-width="1920"
     inkscape:window-height="1003"
     inkscape:window-x="0"
     inkscape:window-y="40"
     inkscape:window-maximized="1"
     inkscape:showpageshadow="2"
     inkscape:pagecheckerboard="0"
     inkscape:deskcolor="#d1d1d1" /><metadata
     id="metadata5"><rdf:RDF><cc:Work
         rdf:about=""><dc:format>image/svg+xml</dc:format><dc:type
           rdf:resource="http://purl.org/dc/dcmitype/StillImage" /></cc:Work></rdf:RDF></metadata><g
     inkscape:label="Layer 1"
     inkscape:groupmode="layer"
     id="layer1"
     style="display:inline"
     transform="translate(-31.285395,-31.341406)"><rect
       style="fill:url(#linearGradient1432);fill-opacity:1;stroke-width:0.17269"
       id="rect1769"
       width="67.73333"
       height="67.73333"
       x="31.285395"
       y="31.341406"
       rx="8.670228"
       ry="10.66375" /><g
       inkscape:label="Layer 1"
       id="layer1-6"
       transform="matrix(0.37345775,0,0,0.31059408,22.903013,12.859233)"><g
         id="g128"
         transform="matrix(0.26458333,0,0,0.26458333,37.347749,80.9491)"><path
           class="st0"
           d="M 458,118.2 346.5,8.4 C 345,6.9 342.9,6 340.7,6 H 135 C 103.9,6 78.7,32.6 78.7,65.4 V 284.6 H 51.3 v 148.6 h 27.4 v 13.4 c 0,32.7 25.3,59.4 56.3,59.4 h 269.4 c 31.1,0 56.3,-26.6 56.3,-59.4 V 124.7 c 0,-2.4 -0.9,-4.8 -2.7,-6.5 z m -120.1,-93.8 97,95.6 h -52.8 c -24.4,0 -44.2,-19.5 -44.2,-43.4 z m 105.8,422.2 c 0,22.9 -17.6,41.5 -39.3,41.5 H 135 c -21.7,0 -39.3,-18.6 -39.3,-41.5 v -13.4 h 187 c 36.5,0 66,-33.3 66,-74.3 0,-41 -29.6,-74.3 -66,-74.3 H 95.7 V 65.4 c 0,-22.9 17.6,-41.5 39.3,-41.5 h 185.9 v 52.7 c 0,33.8 27.4,61.3 61.2,61.3 h 61.6 z M 103.9,396.4 v -75 h 28.7 c 8.3,0 14.8,2.1 19.4,6.4 4.6,4.3 7,9.9 7,16.9 0,7 -2.3,12.7 -7,16.9 -4.7,4.2 -11.2,6.4 -19.4,6.4 h -16.2 v 28.4 z m 70.3,0 v -75 H 199 c 9.5,0 17.2,3 23.2,8.9 6,5.9 8.9,13.6 8.9,22.9 v 11.4 c 0,9.4 -3,17 -8.9,22.9 -6,5.9 -13.7,8.9 -23.2,8.9 z m 116.6,-42 v 10 h -30.2 v 32 H 248 v -75 h 48 v 10 h -35.5 v 22.9 h 30.3 z"
           id="path122" /><path
           class="st0"
           d="m 143.1,354.2 c 2.3,-2.5 3.5,-5.6 3.5,-9.4 0,-3.8 -1.2,-7 -3.5,-9.5 -2.3,-2.5 -5.8,-3.8 -10.5,-3.8 H 116.4 V 358 h 16.2 c 4.7,-0.1 8.1,-1.3 10.5,-3.8 z"
           id="path124" /><path
           class="st0"
           d="m 199,331.5 h -12.3 v 55 H 199 c 6,0 10.8,-2 14.3,-6.1 3.5,-4.1 5.3,-9.3 5.3,-15.7 v -11.5 c 0,-6.3 -1.8,-11.5 -5.3,-15.6 -3.5,-4.1 -8.3,-6.1 -14.3,-6.1 z"
           id="path126" /></g><g
         transform="matrix(2.2882805,0,0,2.1795026,127.28401,-2047.601)"
         id="g206"><path
           d="m 5,1037.4 c -1.1046,0 -2,0.9 -2,2 v 1 6 1 c 0,1.1 0.8954,2 2,2 h 2 10 2 c 1.105,0 2,-0.9 2,-2 v -7 -1 c 0,-1.1 -0.895,-2 -2,-2 h -2 z"
           fill="#f1c40f"
           id="path192" /><path
           d="m 5,1040.4 c -1.1046,0 -2,0.9 -2,2 v 1 6 1 c 0,1.1 0.8954,2 2,2 h 2 10 2 c 1.105,0 2,-0.9 2,-2 v -7 -1 c 0,-1.1 -0.895,-2 -2,-2 h -2 z"
           fill="#f39c12"
           id="path194" /><path
           d="M 12,1 C 8.134,1 5,4.134 5,8 h 3 c 0,-2.2091 1.7909,-4 4,-4 1.863,0 3.399,1.2757 3.844,3 h 3.062 C 18.419,3.61 15.525,1 12,1 Z"
           fill="#bdc3c7"
           transform="translate(0,1028.4)"
           id="path196" /><path
           d="m 5,14 v 1 h 14 v -1 z m 0,2 v 1 h 14 v -1 z m 0,2 v 1 h 14 v -1 z m 0,2 v 1 h 14 v -1 z"
           fill="#e67e22"
           transform="translate(0,1028.4)"
           id="path198" /><path
           d="m 5,1037.4 v 1 c 0,0.5 0.6716,1 1.5,1 0.8284,0 1.5,-0.5 1.5,-1 v -1 c 0,0.5 -0.6716,1 -1.5,1 -0.8284,0 -1.5,-0.5 -1.5,-1 z"
           fill="#7f8c8d"
           id="path200" /><path
           d="m 12,2.4375 c -0.351,0 -0.699,0.0338 -1.031,0.0937 C 10.722,2.5758 10.482,2.6441 10.25,2.7188 10.033,2.7886 9.8271,2.8749 9.625,2.9688 9.519,3.018 9.4141,3.0696 9.3125,3.125 9.1806,3.1969 9.0612,3.2932 8.9375,3.375 8.8217,3.4515 8.7019,3.5092 8.5938,3.5938 8.4531,3.7035 8.3139,3.8149 8.1875,3.9375 8.1506,3.9737 8.1294,4.0253 8.0938,4.0625 7.9254,4.2369 7.7625,4.3981 7.625,4.5938 7.4848,4.7931 7.3546,5.0003 7.25,5.2188 7.246,5.2272 7.254,5.2415 7.25,5.25 7.1389,5.4859 7.0341,5.7459 6.9688,6 6.7158,6.5844 6.0264,7 5.2188,7 5.1588,7 5.1356,7.0018 5.0938,7 5.0833,6.9996 5.077,7.0014 5.0625,7 L 5,8 v 1 1 H 8 V 9 8 C 8,7.7239 8.0405,7.4479 8.0938,7.1875 8.4667,5.3648 10.067,4 12,4 c 1.863,0 3.399,1.2757 3.844,3 h 2.937 C 17.974,7 17.284,6.5844 17.031,6 16.966,5.7459 16.861,5.4859 16.75,5.25 16.746,5.2415 16.754,5.2272 16.75,5.2188 16.645,5.0003 16.515,4.7931 16.375,4.5938 16.237,4.3981 16.075,4.2369 15.906,4.0625 15.87,4.0245 15.851,3.9744 15.812,3.9375 15.686,3.8149 15.547,3.7035 15.406,3.5938 15.302,3.5121 15.174,3.449 15.062,3.375 14.94,3.2941 14.818,3.1962 14.688,3.125 14.587,3.07 14.48,3.0176 14.375,2.9688 14.173,2.8749 13.967,2.7886 13.75,2.7188 13.518,2.6441 13.278,2.5758 13.031,2.5312 12.699,2.4713 12.351,2.4375 12,2.4375 Z"
           fill="#95a5a6"
           transform="translate(0,1028.4)"
           id="path202" /><path
           d="m 16,10 c 0,0.552 0.672,1 1.5,1 0.828,0 1.5,-0.448 1.5,-1 z"
           fill="#e67e22"
           transform="translate(0,1028.4)"
           id="path204" /></g></g></g><g
     inkscape:groupmode="layer"
     id="layer2"
     inkscape:label="Layer 2"
     style="display:inline"
     transform="translate(-31.285395,-31.341406)" /><g
     inkscape:groupmode="layer"
     id="layer3"
     inkscape:label="Layer 3"
     transform="translate(-31.285395,-31.341406)" /><style
     type="text/css"
     id="style120">
	.st0{fill:#ED1C24;}
</style></svg>
